<svg xmlns="http://www.w3.org/2000/svg" viewBox="0 0 100 100" width="100" height="100">
  <!-- Tête de renard -->
  <circle cx="50" cy="50" r="30" fill="#f72585" />
  
  <!-- Oreilles -->
  <polygon points="30,30 25,10 40,25" fill="#f72585" />
  <polygon points="70,30 75,10 60,25" fill="#f72585" />
  <polygon points="33,32 30,17 40,28" fill="#f2f2ff" />
  <polygon points="67,32 70,17 60,28" fill="#f2f2ff" />
  
  <!-- Museau -->
  <ellipse cx="50" cy="60" rx="15" ry="10" fill="#f2f2ff" />
  
  <!-- Nez -->
  <circle cx="50" cy="58" r="3" fill="#6a4c93" />
  
  <!-- Yeux -->
  <circle cx="40" cy="45" r="4" fill="#f2f2ff" />
  <circle cx="60" cy="45" r="4" fill="#f2f2ff" />
  <circle cx="40" cy="45" r="2" fill="#6a4c93" />
  <circle cx="60" cy="45" r="2" fill="#6a4c93" />
  
  <!-- Moustaches -->
  <path d="M50,60 L35,55" stroke="#6a4c93" stroke-width="1" />
  <path d="M50,60 L35,60" stroke="#6a4c93" stroke-width="1" />
  <path d="M50,60 L35,65" stroke="#6a4c93" stroke-width="1" />
  <path d="M50,60 L65,55" stroke="#6a4c93" stroke-width="1" />
  <path d="M50,60 L65,60" stroke="#6a4c93" stroke-width="1" />
  <path d="M50,60 L65,65" stroke="#6a4c93" stroke-width="1" />
  
  <!-- Étoiles -->
  <path d="M15,15 L17,10 L19,15 L24,17 L19,19 L17,24 L15,19 L10,17 Z" fill="#4cc9f0" />
  <path d="M85,25 L87,20 L89,25 L94,27 L89,29 L87,34 L85,29 L80,27 Z" fill="#4cc9f0" />
  <path d="M20,85 L22,80 L24,85 L29,87 L24,89 L22,94 L20,89 L15,87 Z" fill="#4cc9f0" />
</svg>