<svg xmlns="http://www.w3.org/2000/svg" viewBox="0 0 800 600" width="800" height="600">
  <!-- Motifs pour le mode jour avec fleurs et papillons -->
  
  <!-- Soleil -->
  <circle cx="700" cy="100" r="60" fill="#FFD700" opacity="0.8">
    <animate attributeName="opacity" values="0.7;0.9;0.7" dur="5s" repeatCount="indefinite" />
  </circle>
  <g transform="translate(700, 100)">
    <path d="M0,-80 L0,-100" stroke="#FFD700" stroke-width="3" />
    <path d="M80,0 L100,0" stroke="#FFD700" stroke-width="3" />
    <path d="M0,80 L0,100" stroke="#FFD700" stroke-width="3" />
    <path d="M-80,0 L-100,0" stroke="#FFD700" stroke-width="3" />
    <path d="M56.57,-56.57 L70.71,-70.71" stroke="#FFD700" stroke-width="3" />
    <path d="M56.57,56.57 L70.71,70.71" stroke="#FFD700" stroke-width="3" />
    <path d="M-56.57,56.57 L-70.71,70.71" stroke="#FFD700" stroke-width="3" />
    <path d="M-56.57,-56.57 L-70.71,-70.71" stroke="#FFD700" stroke-width="3" />
  </g>
  
  <!-- Nuages -->
  <g opacity="0.7">
    <ellipse cx="200" cy="100" rx="60" ry="40" fill="#FFFFFF" />
    <ellipse cx="250" cy="90" rx="50" ry="35" fill="#FFFFFF" />
    <ellipse cx="300" cy="100" rx="40" ry="30" fill="#FFFFFF" />
    <ellipse cx="150" cy="110" rx="45" ry="30" fill="#FFFFFF" />
  </g>
  
  <g opacity="0.7" transform="translate(500, 150)">
    <ellipse cx="0" cy="0" rx="50" ry="30" fill="#FFFFFF" />
    <ellipse cx="40" cy="-10" rx="40" ry="25" fill="#FFFFFF" />
    <ellipse cx="-40" cy="10" rx="35" ry="20" fill="#FFFFFF" />
  </g>
  
  <!-- Fleurs -->
  <g transform="translate(100, 200)">
    <circle cx="0" cy="0" r="15" fill="#FF9AA2" />
    <circle cx="0" cy="0" r="8" fill="#FFB7B2" />
    <path d="M0,-15 C10,-25 20,-15 15,0" fill="#FFDAC1" />
    <path d="M15,0 C25,-10 15,-20 0,-15" fill="#FFDAC1" />
    <path d="M0,15 C-10,25 -20,15 -15,0" fill="#FFDAC1" />
    <path d="M-15,0 C-25,10 -15,20 0,15" fill="#FFDAC1" />
    <path d="M0,-15 C-10,-25 -20,-15 -15,0" fill="#FFDAC1" />
    <path d="M-15,0 C-25,-10 -15,-20 0,-15" fill="#FFDAC1" />
    <path d="M0,15 C10,25 20,15 15,0" fill="#FFDAC1" />
    <path d="M15,0 C25,10 15,20 0,15" fill="#FFDAC1" />
  </g>
  
  <g transform="translate(400, 500)">
    <circle cx="0" cy="0" r="18" fill="#B5EAD7" />
    <circle cx="0" cy="0" r="10" fill="#C7F9CC" />
    <path d="M0,-18 C12,-30 24,-18 18,0" fill="#E2F0CB" />
    <path d="M18,0 C30,-12 18,-24 0,-18" fill="#E2F0CB" />
    <path d="M0,18 C-12,30 -24,18 -18,0" fill="#E2F0CB" />
    <path d="M-18,0 C-30,12 -18,24 0,18" fill="#E2F0CB" />
    <path d="M0,-18 C-12,-30 -24,-18 -18,0" fill="#E2F0CB" />
    <path d="M-18,0 C-30,-12 -18,-24 0,-18" fill="#E2F0CB" />
    <path d="M0,18 C12,30 24,18 18,0" fill="#E2F0CB" />
    <path d="M18,0 C30,12 18,24 0,18" fill="#E2F0CB" />
  </g>
  
  <g transform="translate(700, 350)">
    <circle cx="0" cy="0" r="12" fill="#C7CEEA" />
    <circle cx="0" cy="0" r="6" fill="#E2F0CB" />
    <path d="M0,-12 C8,-20 16,-12 12,0" fill="#FFDAC1" />
    <path d="M12,0 C20,-8 12,-16 0,-12" fill="#FFDAC1" />
    <path d="M0,12 C-8,20 -16,12 -12,0" fill="#FFDAC1" />
    <path d="M-12,0 C-20,8 -12,16 0,12" fill="#FFDAC1" />
    <path d="M0,-12 C-8,-20 -16,-12 -12,0" fill="#FFDAC1" />
    <path d="M-12,0 C-20,-8 -12,-16 0,-12" fill="#FFDAC1" />
    <path d="M0,12 C8,20 16,12 12,0" fill="#FFDAC1" />
    <path d="M12,0 C20,8 12,16 0,12" fill="#FFDAC1" />
  </g>
  
  <!-- Petites fleurs dispersées -->
  <g>
    <circle cx="150" cy="300" r="5" fill="#FF9AA2" opacity="0.8" />
    <circle cx="170" cy="320" r="4" fill="#B5EAD7" opacity="0.8" />
    <circle cx="190" cy="290" r="6" fill="#C7CEEA" opacity="0.8" />
    <circle cx="500" cy="200" r="5" fill="#FF9AA2" opacity="0.8" />
    <circle cx="520" cy="220" r="4" fill="#B5EAD7" opacity="0.8" />
    <circle cx="540" cy="190" r="6" fill="#C7CEEA" opacity="0.8" />
    <circle cx="300" cy="400" r="5" fill="#FF9AA2" opacity="0.8" />
    <circle cx="320" cy="420" r="4" fill="#B5EAD7" opacity="0.8" />
    <circle cx="340" cy="390" r="6" fill="#C7CEEA" opacity="0.8" />
    <circle cx="600" cy="450" r="5" fill="#FF9AA2" opacity="0.8" />
    <circle cx="620" cy="470" r="4" fill="#B5EAD7" opacity="0.8" />
    <circle cx="640" cy="440" r="6" fill="#C7CEEA" opacity="0.8" />
  </g>
  
  <!-- Papillons -->
  <g transform="translate(250, 150) rotate(15)">
    <path d="M0,0 C-15,-15 -30,-10 -20,5 C-30,20 -15,25 0,0" fill="#FFB7B2" opacity="0.9" />
    <path d="M0,0 C15,-15 30,-10 20,5 C30,20 15,25 0,0" fill="#FFB7B2" opacity="0.9" />
    <line x1="0" y1="0" x2="0" y2="15" stroke="#FFB7B2" stroke-width="2" />
    <circle cx="-20" cy="5" r="2" fill="#FFFFFF" opacity="0.8" />
    <circle cx="20" cy="5" r="2" fill="#FFFFFF" opacity="0.8" />
  </g>
  
  <g transform="translate(550, 250) rotate(-10)">
    <path d="M0,0 C-12,-12 -24,-8 -16,4 C-24,16 -12,20 0,0" fill="#C7CEEA" opacity="0.9" />
    <path d="M0,0 C12,-12 24,-8 16,4 C24,16 12,20 0,0" fill="#C7CEEA" opacity="0.9" />
    <line x1="0" y1="0" x2="0" y2="12" stroke="#C7CEEA" stroke-width="2" />
    <circle cx="-16" cy="4" r="1.5" fill="#FFFFFF" opacity="0.8" />
    <circle cx="16" cy="4" r="1.5" fill="#FFFFFF" opacity="0.8" />
  </g>
  
  <g transform="translate(350, 350) rotate(20)">
    <path d="M0,0 C-10,-10 -20,-7 -14,3 C-20,13 -10,17 0,0" fill="#B5EAD7" opacity="0.9" />
    <path d="M0,0 C10,-10 20,-7 14,3 C20,13 10,17 0,0" fill="#B5EAD7" opacity="0.9" />
    <line x1="0" y1="0" x2="0" y2="10" stroke="#B5EAD7" stroke-width="1.5" />
    <circle cx="-14" cy="3" r="1.5" fill="#FFFFFF" opacity="0.8" />
    <circle cx="14" cy="3" r="1.5" fill="#FFFFFF" opacity="0.8" />
  </g>
  
  <g transform="translate(650, 400) rotate(-15)">
    <path d="M0,0 C-8,-8 -16,-6 -12,2 C-16,10 -8,14 0,0" fill="#FFDAC1" opacity="0.9" />
    <path d="M0,0 C8,-8 16,-6 12,2 C16,10 8,14 0,0" fill="#FFDAC1" opacity="0.9" />
    <line x1="0" y1="0" x2="0" y2="8" stroke="#FFDAC1" stroke-width="1.5" />
    <circle cx="-12" cy="2" r="1" fill="#FFFFFF" opacity="0.8" />
    <circle cx="12" cy="2" r="1" fill="#FFFFFF" opacity="0.8" />
  </g>
  
  <!-- Animation pour les papillons -->
  <animateTransform 
    xlink:href="#butterfly1"
    attributeName="transform"
    type="translate"
    from="250,150"
    to="270,170"
    dur="5s"
    repeatCount="indefinite"
    additive="sum" />
</svg>