<svg xmlns="http://www.w3.org/2000/svg" viewBox="0 0 800 600" width="800" height="600">
  <!-- Fleurs et motifs décoratifs -->
  
  <!-- Fleur 1 -->
  <g class="flower" transform="translate(100, 100)">
    <circle cx="0" cy="0" r="15" fill="#ff7eb9" opacity="0.8"/>
    <circle cx="0" cy="0" r="8" fill="#ffa6d3" opacity="0.9"/>
    <g>
      <path d="M0,0 C5,-20 15,-25 0,-40 C-15,-25 -5,-20 0,0" fill="#ff7eb9" opacity="0.7"/>
      <path d="M0,0 C20,-5 25,-15 40,0 C25,15 20,5 0,0" fill="#ff7eb9" opacity="0.7"/>
      <path d="M0,0 C5,20 15,25 0,40 C-15,25 -5,20 0,0" fill="#ff7eb9" opacity="0.7"/>
      <path d="M0,0 C-20,5 -25,15 -40,0 C-25,-15 -20,-5 0,0" fill="#ff7eb9" opacity="0.7"/>
    </g>
  </g>
  
  <!-- Fleur 2 -->
  <g class="flower" transform="translate(700, 150)">
    <circle cx="0" cy="0" r="12" fill="#b5a9ff" opacity="0.8"/>
    <circle cx="0" cy="0" r="6" fill="#d4ccff" opacity="0.9"/>
    <g>
      <path d="M0,0 C4,-15 12,-20 0,-30 C-12,-20 -4,-15 0,0" fill="#b5a9ff" opacity="0.7"/>
      <path d="M0,0 C15,-4 20,-12 30,0 C20,12 15,4 0,0" fill="#b5a9ff" opacity="0.7"/>
      <path d="M0,0 C4,15 12,20 0,30 C-12,20 -4,15 0,0" fill="#b5a9ff" opacity="0.7"/>
      <path d="M0,0 C-15,4 -20,12 -30,0 C-20,-12 -15,-4 0,0" fill="#b5a9ff" opacity="0.7"/>
    </g>
  </g>
  
  <!-- Fleur 3 -->
  <g class="flower" transform="translate(200, 500)">
    <circle cx="0" cy="0" r="18" fill="#6edbff" opacity="0.8"/>
    <circle cx="0" cy="0" r="10" fill="#a0e9ff" opacity="0.9"/>
    <g>
      <path d="M0,0 C6,-25 18,-30 0,-45 C-18,-30 -6,-25 0,0" fill="#6edbff" opacity="0.7"/>
      <path d="M0,0 C25,-6 30,-18 45,0 C30,18 25,6 0,0" fill="#6edbff" opacity="0.7"/>
      <path d="M0,0 C6,25 18,30 0,45 C-18,30 -6,25 0,0" fill="#6edbff" opacity="0.7"/>
      <path d="M0,0 C-25,6 -30,18 -45,0 C-30,-18 -25,-6 0,0" fill="#6edbff" opacity="0.7"/>
    </g>
  </g>
  
  <!-- Petites fleurs dispersées -->
  <g class="small-flowers">
    <circle cx="300" cy="200" r="5" fill="#ff7eb9" opacity="0.6"/>
    <circle cx="320" cy="220" r="4" fill="#b5a9ff" opacity="0.6"/>
    <circle cx="340" cy="190" r="6" fill="#6edbff" opacity="0.6"/>
    <circle cx="500" cy="300" r="5" fill="#ff7eb9" opacity="0.6"/>
    <circle cx="520" cy="320" r="4" fill="#b5a9ff" opacity="0.6"/>
    <circle cx="540" cy="290" r="6" fill="#6edbff" opacity="0.6"/>
    <circle cx="150" cy="400" r="5" fill="#ff7eb9" opacity="0.6"/>
    <circle cx="170" cy="420" r="4" fill="#b5a9ff" opacity="0.6"/>
    <circle cx="190" cy="390" r="6" fill="#6edbff" opacity="0.6"/>
    <circle cx="650" cy="450" r="5" fill="#ff7eb9" opacity="0.6"/>
    <circle cx="670" cy="470" r="4" fill="#b5a9ff" opacity="0.6"/>
    <circle cx="690" cy="440" r="6" fill="#6edbff" opacity="0.6"/>
  </g>
  
  <!-- Feuilles et tiges -->
  <g class="leaves">
    <path d="M400,100 C420,120 450,110 460,90 C440,85 420,90 400,100" fill="#a0e9a0" opacity="0.7"/>
    <path d="M420,300 C440,320 470,310 480,290 C460,285 440,290 420,300" fill="#a0e9a0" opacity="0.7"/>
    <path d="M600,400 C620,420 650,410 660,390 C640,385 620,390 600,400" fill="#a0e9a0" opacity="0.7"/>
    <path d="M200,250 C220,270 250,260 260,240 C240,235 220,240 200,250" fill="#a0e9a0" opacity="0.7"/>
  </g>
  
  <!-- Papillons -->
  <g class="butterfly" transform="translate(500, 200) rotate(20)">
    <path d="M0,0 C-10,-15 -20,-10 -15,0 C-20,10 -10,15 0,0" fill="#ffa6d3" opacity="0.7"/>
    <path d="M0,0 C10,-15 20,-10 15,0 C20,10 10,15 0,0" fill="#ffa6d3" opacity="0.7"/>
    <line x1="0" y1="0" x2="0" y2="10" stroke="#ffa6d3" stroke-width="1"/>
  </g>
  
  <g class="butterfly" transform="translate(300, 350) rotate(-15)">
    <path d="M0,0 C-8,-12 -16,-8 -12,0 C-16,8 -8,12 0,0" fill="#d4ccff" opacity="0.7"/>
    <path d="M0,0 C8,-12 16,-8 12,0 C16,8 8,12 0,0" fill="#d4ccff" opacity="0.7"/>
    <line x1="0" y1="0" x2="0" y2="8" stroke="#d4ccff" stroke-width="1"/>
  </g>
</svg>