<svg xmlns="http://www.w3.org/2000/svg" viewBox="0 0 800 600" width="800" height="600">
  <!-- Illustration héro pour le mode jour -->
  
  <!-- Fond avec ciel bleu clair -->
  <rect x="0" y="0" width="800" height="600" fill="#E0F7FA" opacity="0.5" />
  
  <!-- Soleil -->
  <circle cx="700" cy="100" r="60" fill="#FFD700" opacity="0.8">
    <animate attributeName="opacity" values="0.7;0.9;0.7" dur="5s" repeatCount="indefinite" />
  </circle>
  <g transform="translate(700, 100)">
    <path d="M0,-80 L0,-100" stroke="#FFD700" stroke-width="3" />
    <path d="M80,0 L100,0" stroke="#FFD700" stroke-width="3" />
    <path d="M0,80 L0,100" stroke="#FFD700" stroke-width="3" />
    <path d="M-80,0 L-100,0" stroke="#FFD700" stroke-width="3" />
    <path d="M56.57,-56.57 L70.71,-70.71" stroke="#FFD700" stroke-width="3" />
    <path d="M56.57,56.57 L70.71,70.71" stroke="#FFD700" stroke-width="3" />
    <path d="M-56.57,56.57 L-70.71,70.71" stroke="#FFD700" stroke-width="3" />
    <path d="M-56.57,-56.57 L-70.71,-70.71" stroke="#FFD700" stroke-width="3" />
  </g>
  
  <!-- Nuages -->
  <g opacity="0.7">
    <ellipse cx="200" cy="100" rx="60" ry="40" fill="#FFFFFF" />
    <ellipse cx="250" cy="90" rx="50" ry="35" fill="#FFFFFF" />
    <ellipse cx="300" cy="100" rx="40" ry="30" fill="#FFFFFF" />
    <ellipse cx="150" cy="110" rx="45" ry="30" fill="#FFFFFF" />
  </g>
  
  <g opacity="0.7" transform="translate(500, 150)">
    <ellipse cx="0" cy="0" rx="50" ry="30" fill="#FFFFFF" />
    <ellipse cx="40" cy="-10" rx="40" ry="25" fill="#FFFFFF" />
    <ellipse cx="-40" cy="10" rx="35" ry="20" fill="#FFFFFF" />
  </g>
  
  <!-- Arbre magique -->
  <g transform="translate(200, 400)">
    <!-- Tronc -->
    <path d="M0,0 C10,50 -10,100 0,150" stroke="#8D6E63" stroke-width="20" fill="none" />
    
    <!-- Feuillage -->
    <circle cx="0" cy="0" r="80" fill="#A5D6A7" />
    <circle cx="-40" cy="-20" r="50" fill="#81C784" />
    <circle cx="40" cy="-30" r="60" fill="#66BB6A" />
    
    <!-- Fleurs dans l'arbre -->
    <circle cx="-20" cy="-40" r="8" fill="#FF9AA2" />
    <circle cx="30" cy="-50" r="10" fill="#FFB7B2" />
    <circle cx="-40" cy="10" r="7" fill="#FFDAC1" />
    <circle cx="50" cy="0" r="9" fill="#E2F0CB" />
    <circle cx="10" cy="30" r="8" fill="#B5EAD7" />
  </g>
  
  <!-- Enfants lisant -->
  <g transform="translate(400, 450)">
    <!-- Enfant 1 -->
    <circle cx="-50" cy="0" r="25" fill="#FFB7B2" /> <!-- Tête -->
    <rect x="-65" y="25" width="30" height="40" rx="5" fill="#C7CEEA" /> <!-- Corps -->
    <rect x="-80" y="40" width="60" height="10" rx="2" fill="#FFDAC1" /> <!-- Livre -->
    
    <!-- Enfant 2 -->
    <circle cx="50" cy="0" r="25" fill="#FFDAC1" /> <!-- Tête -->
    <rect x="35" y="25" width="30" height="40" rx="5" fill="#FF9AA2" /> <!-- Corps -->
    <rect x="20" y="40" width="60" height="10" rx="2" fill="#E2F0CB" /> <!-- Livre -->
  </g>
  
  <!-- Nuages de rêves -->
  <g opacity="0.8">
    <ellipse cx="300" cy="350" rx="40" ry="25" fill="#E1BEE7" />
    <ellipse cx="500" cy="320" rx="35" ry="20" fill="#C5CAE9" />
  </g>
  
  <!-- Papillons -->
  <g transform="translate(250, 150) rotate(15)">
    <path d="M0,0 C-15,-15 -30,-10 -20,5 C-30,20 -15,25 0,0" fill="#FFB7B2" opacity="0.9" />
    <path d="M0,0 C15,-15 30,-10 20,5 C30,20 15,25 0,0" fill="#FFB7B2" opacity="0.9" />
    <line x1="0" y1="0" x2="0" y2="15" stroke="#FFB7B2" stroke-width="2" />
    <circle cx="-20" cy="5" r="2" fill="#FFFFFF" opacity="0.8" />
    <circle cx="20" cy="5" r="2" fill="#FFFFFF" opacity="0.8" />
  </g>
  
  <g transform="translate(550, 250) rotate(-10)">
    <path d="M0,0 C-12,-12 -24,-8 -16,4 C-24,16 -12,20 0,0" fill="#C7CEEA" opacity="0.9" />
    <path d="M0,0 C12,-12 24,-8 16,4 C24,16 12,20 0,0" fill="#C7CEEA" opacity="0.9" />
    <line x1="0" y1="0" x2="0" y2="12" stroke="#C7CEEA" stroke-width="2" />
    <circle cx="-16" cy="4" r="1.5" fill="#FFFFFF" opacity="0.8" />
    <circle cx="16" cy="4" r="1.5" fill="#FFFFFF" opacity="0.8" />
  </g>
  
  <g transform="translate(350, 350) rotate(20)">
    <path d="M0,0 C-10,-10 -20,-7 -14,3 C-20,13 -10,17 0,0" fill="#B5EAD7" opacity="0.9" />
    <path d="M0,0 C10,-10 20,-7 14,3 C20,13 10,17 0,0" fill="#B5EAD7" opacity="0.9" />
    <line x1="0" y1="0" x2="0" y2="10" stroke="#B5EAD7" stroke-width="1.5" />
    <circle cx="-14" cy="3" r="1.5" fill="#FFFFFF" opacity="0.8" />
    <circle cx="14" cy="3" r="1.5" fill="#FFFFFF" opacity="0.8" />
  </g>
  
  <g transform="translate(150, 300) rotate(-15)">
    <path d="M0,0 C-8,-8 -16,-6 -12,2 C-16,10 -8,14 0,0" fill="#FFDAC1" opacity="0.9" />
    <path d="M0,0 C8,-8 16,-6 12,2 C16,10 8,14 0,0" fill="#FFDAC1" opacity="0.9" />
    <line x1="0" y1="0" x2="0" y2="8" stroke="#FFDAC1" stroke-width="1.5" />
    <circle cx="-12" cy="2" r="1" fill="#FFFFFF" opacity="0.8" />
    <circle cx="12" cy="2" r="1" fill="#FFFFFF" opacity="0.8" />
  </g>
  
  <g transform="translate(650, 400) rotate(25)">
    <path d="M0,0 C-9,-9 -18,-6 -13,3 C-18,12 -9,15 0,0" fill="#FF9AA2" opacity="0.9" />
    <path d="M0,0 C9,-9 18,-6 13,3 C18,12 9,15 0,0" fill="#FF9AA2" opacity="0.9" />
    <line x1="0" y1="0" x2="0" y2="9" stroke="#FF9AA2" stroke-width="1.5" />
    <circle cx="-13" cy="3" r="1.2" fill="#FFFFFF" opacity="0.8" />
    <circle cx="13" cy="3" r="1.2" fill="#FFFFFF" opacity="0.8" />
  </g>
  
  <!-- Fleurs volantes -->
  <g transform="translate(100, 200)">
    <circle cx="0" cy="0" r="10" fill="#FF9AA2" opacity="0.8" />
    <circle cx="0" cy="0" r="5" fill="#FFB7B2" opacity="0.9" />
    <path d="M0,-10 C5,-15 10,-10 8,0" fill="#FFDAC1" opacity="0.8" />
    <path d="M8,0 C13,-5 8,-10 0,-10" fill="#FFDAC1" opacity="0.8" />
    <path d="M0,10 C-5,15 -10,10 -8,0" fill="#FFDAC1" opacity="0.8" />
    <path d="M-8,0 C-13,5 -8,10 0,10" fill="#FFDAC1" opacity="0.8" />
    <path d="M0,-10 C-5,-15 -10,-10 -8,0" fill="#FFDAC1" opacity="0.8" />
    <path d="M-8,0 C-13,-5 -8,-10 0,-10" fill="#FFDAC1" opacity="0.8" />
    <path d="M0,10 C5,15 10,10 8,0" fill="#FFDAC1" opacity="0.8" />
    <path d="M8,0 C13,5 8,10 0,10" fill="#FFDAC1" opacity="0.8" />
  </g>
  
  <g transform="translate(600, 200)">
    <circle cx="0" cy="0" r="8" fill="#B5EAD7" opacity="0.8" />
    <circle cx="0" cy="0" r="4" fill="#C7F9CC" opacity="0.9" />
    <path d="M0,-8 C4,-12 8,-8 6,0" fill="#E2F0CB" opacity="0.8" />
    <path d="M6,0 C10,-4 6,-8 0,-8" fill="#E2F0CB" opacity="0.8" />
    <path d="M0,8 C-4,12 -8,8 -6,0" fill="#E2F0CB" opacity="0.8" />
    <path d="M-6,0 C-10,4 -6,8 0,8" fill="#E2F0CB" opacity="0.8" />
    <path d="M0,-8 C-4,-12 -8,-8 -6,0" fill="#E2F0CB" opacity="0.8" />
    <path d="M-6,0 C-10,-4 -6,-8 0,-8" fill="#E2F0CB" opacity="0.8" />
    <path d="M0,8 C4,12 8,8 6,0" fill="#E2F0CB" opacity="0.8" />
    <path d="M6,0 C10,4 6,8 0,8" fill="#E2F0CB" opacity="0.8" />
  </g>
</svg>