<svg xmlns="http://www.w3.org/2000/svg" viewBox="0 0 100 100" width="100" height="100">
  <!-- Livre ancien -->
  <rect x="20" y="30" width="60" height="50" fill="#6a4c93" rx="3" ry="3" />
  <rect x="25" y="35" width="50" height="40" fill="#f2f2ff" rx="2" ry="2" />
  
  <!-- Pages -->
  <path d="M50,35 L50,75" stroke="#6a4c93" stroke-width="1" />
  <path d="M35,40 L45,40" stroke="#6a4c93" stroke-width="1" />
  <path d="M35,45 L45,45" stroke="#6a4c93" stroke-width="1" />
  <path d="M35,50 L45,50" stroke="#6a4c93" stroke-width="1" />
  <path d="M35,55 L45,55" stroke="#6a4c93" stroke-width="1" />
  <path d="M35,60 L45,60" stroke="#6a4c93" stroke-width="1" />
  <path d="M35,65 L45,65" stroke="#6a4c93" stroke-width="1" />
  <path d="M35,70 L45,70" stroke="#6a4c93" stroke-width="1" />
  
  <path d="M55,40 L65,40" stroke="#6a4c93" stroke-width="1" />
  <path d="M55,45 L65,45" stroke="#6a4c93" stroke-width="1" />
  <path d="M55,50 L65,50" stroke="#6a4c93" stroke-width="1" />
  <path d="M55,55 L65,55" stroke="#6a4c93" stroke-width="1" />
  <path d="M55,60 L65,60" stroke="#6a4c93" stroke-width="1" />
  <path d="M55,65 L65,65" stroke="#6a4c93" stroke-width="1" />
  <path d="M55,70 L65,70" stroke="#6a4c93" stroke-width="1" />
  
  <!-- Dragon légendaire -->
  <path d="M30,20 Q40,10 50,20 Q60,10 70,20" stroke="#f72585" stroke-width="3" fill="none" />
  <circle cx="30" cy="20" r="5" fill="#f72585" />
  <circle cx="70" cy="20" r="5" fill="#f72585" />
  
  <!-- Yeux du dragon -->
  <circle cx="30" cy="20" r="2" fill="#4cc9f0" />
  <circle cx="70" cy="20" r="2" fill="#4cc9f0" />
  
  <!-- Flamme magique -->
  <path d="M50,20 Q55,15 60,10 Q55,15 50,10 Q45,15 40,10 Q45,15 50,20" fill="#4cc9f0" />
  
  <!-- Étoiles magiques -->
  <path d="M15,15 L17,10 L19,15 L24,17 L19,19 L17,24 L15,19 L10,17 Z" fill="#f72585" />
  <path d="M85,15 L87,10 L89,15 L94,17 L89,19 L87,24 L85,19 L80,17 Z" fill="#f72585" />
  <path d="M15,85 L17,80 L19,85 L24,87 L19,89 L17,94 L15,89 L10,87 Z" fill="#f72585" />
  <path d="M85,85 L87,80 L89,85 L94,87 L89,89 L87,94 L85,89 L80,87 Z" fill="#f72585" />
</svg>