<svg xmlns="http://www.w3.org/2000/svg" viewBox="0 0 100 100" width="100" height="100">
  <!-- Fond de lune -->
  <circle cx="50" cy="50" r="40" fill="#f2f2ff" />
  
  <!-- Cratères de lune -->
  <circle cx="35" cy="40" r="5" fill="#e6e6ff" />
  <circle cx="60" cy="30" r="8" fill="#e6e6ff" />
  <circle cx="65" cy="60" r="6" fill="#e6e6ff" />
  
  <!-- Étoiles -->
  <path d="M20,20 L22,15 L24,20 L29,22 L24,24 L22,29 L20,24 L15,22 Z" fill="#6a4c93" />
  <path d="M75,15 L77,10 L79,15 L84,17 L79,19 L77,24 L75,19 L70,17 Z" fill="#f72585" />
  <path d="M85,70 L87,65 L89,70 L94,72 L89,74 L87,79 L85,74 L80,72 Z" fill="#4cc9f0" />
  
  <!-- Petit personnage lisant -->
  <circle cx="50" cy="55" r="10" fill="#f72585" /> <!-- Tête -->
  <path d="M45,65 Q50,75 55,65" stroke="#f72585" stroke-width="3" fill="none" /> <!-- Corps -->
  <rect x="40" y="70" width="20" height="10" rx="2" fill="#6a4c93" /> <!-- Livre -->
</svg>