<svg xmlns="http://www.w3.org/2000/svg" viewBox="0 0 200 200" width="200" height="200">
  <!-- Logo pour le mode jour -->
  
  <!-- Soleil -->
  <circle cx="100" cy="100" r="50" fill="#FFD700" opacity="0.9" />
  
  <!-- Rayons du soleil -->
  <g stroke="#FFD700" stroke-width="4" opacity="0.8">
    <line x1="100" y1="30" x2="100" y2="10" />
    <line x1="100" y1="190" x2="100" y2="170" />
    <line x1="30" y1="100" x2="10" y2="100" />
    <line x1="190" y1="100" x2="170" y2="100" />
    <line x1="50" y1="50" x2="36" y2="36" />
    <line x1="150" y1="150" x2="164" y2="164" />
    <line x1="50" y1="150" x2="36" y2="164" />
    <line x1="150" y1="50" x2="164" y2="36" />
  </g>
  
  <!-- Personnage lisant un livre -->
  <g transform="translate(85, 90)">
    <!-- Tête -->
    <circle cx="15" cy="0" r="12" fill="#FFB7B2" />
    
    <!-- Corps -->
    <rect x="10" y="12" width="10" height="15" rx="2" fill="#B5EAD7" />
    
    <!-- Livre -->
    <rect x="0" y="20" width="30" height="5" rx="1" fill="#FFDAC1" />
    <line x1="15" y1="20" x2="15" y2="25" stroke="#C7CEEA" stroke-width="1" />
    
    <!-- Bras -->
    <path d="M10,15 C5,18 0,20 0,20" stroke="#B5EAD7" stroke-width="3" fill="none" />
    <path d="M20,15 C25,18 30,20 30,20" stroke="#B5EAD7" stroke-width="3" fill="none" />
  </g>
  
  <!-- Papillons décoratifs -->
  <g transform="translate(40, 60) rotate(-15) scale(0.6)">
    <path d="M0,0 C-10,-10 -20,-7 -14,3 C-20,13 -10,17 0,0" fill="#FF9AA2" opacity="0.9" />
    <path d="M0,0 C10,-10 20,-7 14,3 C20,13 10,17 0,0" fill="#FF9AA2" opacity="0.9" />
    <line x1="0" y1="0" x2="0" y2="10" stroke="#FF9AA2" stroke-width="1.5" />
  </g>
  
  <g transform="translate(160, 60) rotate(15) scale(0.6)">
    <path d="M0,0 C-10,-10 -20,-7 -14,3 C-20,13 -10,17 0,0" fill="#C7CEEA" opacity="0.9" />
    <path d="M0,0 C10,-10 20,-7 14,3 C20,13 10,17 0,0" fill="#C7CEEA" opacity="0.9" />
    <line x1="0" y1="0" x2="0" y2="10" stroke="#C7CEEA" stroke-width="1.5" />
  </g>
  
  <!-- Fleurs décoratives -->
  <g transform="translate(40, 140) scale(0.5)">
    <circle cx="0" cy="0" r="15" fill="#FF9AA2" />
    <circle cx="0" cy="0" r="8" fill="#FFB7B2" />
    <path d="M0,-15 C10,-25 20,-15 15,0" fill="#FFDAC1" />
    <path d="M15,0 C25,-10 15,-20 0,-15" fill="#FFDAC1" />
    <path d="M0,15 C-10,25 -20,15 -15,0" fill="#FFDAC1" />
    <path d="M-15,0 C-25,10 -15,20 0,15" fill="#FFDAC1" />
    <path d="M0,-15 C-10,-25 -20,-15 -15,0" fill="#FFDAC1" />
    <path d="M-15,0 C-25,-10 -15,-20 0,-15" fill="#FFDAC1" />
    <path d="M0,15 C10,25 20,15 15,0" fill="#FFDAC1" />
    <path d="M15,0 C25,10 15,20 0,15" fill="#FFDAC1" />
  </g>
  
  <g transform="translate(160, 140) scale(0.5)">
    <circle cx="0" cy="0" r="15" fill="#B5EAD7" />
    <circle cx="0" cy="0" r="8" fill="#C7F9CC" />
    <path d="M0,-15 C10,-25 20,-15 15,0" fill="#E2F0CB" />
    <path d="M15,0 C25,-10 15,-20 0,-15" fill="#E2F0CB" />
    <path d="M0,15 C-10,25 -20,15 -15,0" fill="#E2F0CB" />
    <path d="M-15,0 C-25,10 -15,20 0,15" fill="#E2F0CB" />
    <path d="M0,-15 C-10,-25 -20,-15 -15,0" fill="#E2F0CB" />
    <path d="M-15,0 C-25,-10 -15,-20 0,-15" fill="#E2F0CB" />
    <path d="M0,15 C10,25 20,15 15,0" fill="#E2F0CB" />
    <path d="M15,0 C25,10 15,20 0,15" fill="#E2F0CB" />
  </g>
</svg>