<svg xmlns="http://www.w3.org/2000/svg" viewBox="0 0 300 200" width="300" height="200">
  <!-- Fond de ciel étoilé -->
  <rect width="300" height="200" fill="#1a1a2e" />
  
  <!-- Étoiles -->
  <circle cx="30" cy="30" r="1" fill="white" />
  <circle cx="60" cy="50" r="1.5" fill="white" />
  <circle cx="90" cy="20" r="1" fill="white" />
  <circle cx="120" cy="40" r="2" fill="white" />
  <circle cx="150" cy="60" r="1" fill="white" />
  <circle cx="180" cy="30" r="1.5" fill="white" />
  <circle cx="210" cy="50" r="1" fill="white" />
  <circle cx="240" cy="20" r="2" fill="white" />
  <circle cx="270" cy="40" r="1" fill="white" />
  
  <circle cx="40" cy="80" r="1.5" fill="white" />
  <circle cx="70" cy="100" r="1" fill="white" />
  <circle cx="100" cy="70" r="2" fill="white" />
  <circle cx="130" cy="90" r="1" fill="white" />
  <circle cx="160" cy="110" r="1.5" fill="white" />
  <circle cx="190" cy="80" r="1" fill="white" />
  <circle cx="220" cy="100" r="2" fill="white" />
  <circle cx="250" cy="70" r="1" fill="white" />
  <circle cx="280" cy="90" r="1.5" fill="white" />
  
  <circle cx="50" cy="130" r="1" fill="white" />
  <circle cx="80" cy="150" r="2" fill="white" />
  <circle cx="110" cy="120" r="1" fill="white" />
  <circle cx="140" cy="140" r="1.5" fill="white" />
  <circle cx="170" cy="160" r="1" fill="white" />
  <circle cx="200" cy="130" r="2" fill="white" />
  <circle cx="230" cy="150" r="1" fill="white" />
  <circle cx="260" cy="120" r="1.5" fill="white" />
  <circle cx="290" cy="140" r="1" fill="white" />
  
  <!-- Planètes -->
  <circle cx="50" cy="50" r="10" fill="#f72585" opacity="0.7" />
  <circle cx="250" cy="150" r="15" fill="#4cc9f0" opacity="0.7" />
  
  <!-- Le Petit Prince sur sa planète -->
  <circle cx="150" cy="100" r="25" fill="#6a4c93" opacity="0.8" />
  <circle cx="140" cy="90" r="5" fill="#4cc9f0" opacity="0.6" /> <!-- Cratère -->
  <circle cx="160" cy="110" r="7" fill="#4cc9f0" opacity="0.6" /> <!-- Cratère -->
  
  <!-- Le Petit Prince -->
  <circle cx="150" cy="75" r="8" fill="#f2f2ff" /> <!-- Tête -->
  <rect x="147" y="83" width="6" height="12" fill="#f2f2ff" /> <!-- Corps -->
  <rect x="142" y="87" width="5" height="2" fill="#f2f2ff" /> <!-- Bras gauche -->
  <rect x="153" y="87" width="5" height="2" fill="#f2f2ff" /> <!-- Bras droit -->
  <rect x="147" y="95" width="3" height="5" fill="#f2f2ff" /> <!-- Jambe gauche -->
  <rect x="150" y="95" width="3" height="5" fill="#f2f2ff" /> <!-- Jambe droite -->
  
  <!-- Écharpe flottante -->
  <path d="M150,85 Q160,80 170,85" stroke="#f72585" stroke-width="2" fill="none" />
  
  <!-- Rose -->
  <circle cx="160" cy="80" r="3" fill="#f72585" />
  <path d="M160,77 L160,73" stroke="#6a4c93" stroke-width="1" />
  <path d="M160,73 Q158,71 156,73" stroke="#6a4c93" stroke-width="1" fill="none" />
  <path d="M160,73 Q162,71 164,73" stroke="#6a4c93" stroke-width="1" fill="none" />
</svg>