<svg xmlns="http://www.w3.org/2000/svg" viewBox="0 0 300 200" width="300" height="200">
  <!-- Fond d'étang -->
  <rect width="300" height="200" fill="#1a1a2e" />
  <rect width="300" height="150" y="50" fill="#4cc9f0" opacity="0.3" />
  
  <!-- Roseaux -->
  <path d="M20,200 L20,120 L15,100" stroke="#6a4c93" stroke-width="2" fill="none" />
  <path d="M30,200 L30,110 L35,90" stroke="#6a4c93" stroke-width="2" fill="none" />
  <path d="M40,200 L40,130 L45,110" stroke="#6a4c93" stroke-width="2" fill="none" />
  <path d="M260,200 L260,120 L255,100" stroke="#6a4c93" stroke-width="2" fill="none" />
  <path d="M270,200 L270,110 L275,90" stroke="#6a4c93" stroke-width="2" fill="none" />
  <path d="M280,200 L280,130 L285,110" stroke="#6a4c93" stroke-width="2" fill="none" />
  
  <!-- Nénuphars -->
  <circle cx="70" cy="150" r="15" fill="#6a4c93" opacity="0.5" />
  <circle cx="200" cy="130" r="20" fill="#6a4c93" opacity="0.5" />
  <circle cx="120" cy="170" r="12" fill="#6a4c93" opacity="0.5" />
  
  <!-- Fleurs de nénuphar -->
  <circle cx="70" cy="150" r="5" fill="#f72585" opacity="0.8" />
  <circle cx="200" cy="130" r="7" fill="#f72585" opacity="0.8" />
  <circle cx="120" cy="170" r="4" fill="#f72585" opacity="0.8" />
  
  <!-- Canards -->
  <!-- Maman canard -->
  <ellipse cx="150" cy="100" rx="20" ry="12" fill="#6a4c93" /> <!-- Corps -->
  <circle cx="170" cy="100" r="8" fill="#6a4c93" /> <!-- Tête -->
  <path d="M175,100 L180,98" stroke="#f72585" stroke-width="2" /> <!-- Bec -->
  <circle cx="173" cy="98" r="1" fill="black" /> <!-- Œil -->
  
  <!-- Canetons normaux -->
  <ellipse cx="120" cy="110" rx="10" ry="6" fill="#6a4c93" /> <!-- Corps -->
  <circle cx="110" cy="110" r="4" fill="#6a4c93" /> <!-- Tête -->
  <path d="M107,110 L104,109" stroke="#f72585" stroke-width="1" /> <!-- Bec -->
  <circle cx="108" cy="109" r="0.5" fill="black" /> <!-- Œil -->
  
  <ellipse cx="130" cy="120" rx="10" ry="6" fill="#6a4c93" /> <!-- Corps -->
  <circle cx="120" cy="120" r="4" fill="#6a4c93" /> <!-- Tête -->
  <path d="M117,120 L114,119" stroke="#f72585" stroke-width="1" /> <!-- Bec -->
  <circle cx="118" cy="119" r="0.5" fill="black" /> <!-- Œil -->
  
  <!-- Vilain petit canard (différent) -->
  <ellipse cx="150" cy="130" rx="12" ry="7" fill="#f2f2ff" /> <!-- Corps -->
  <circle cx="138" cy="130" r="5" fill="#f2f2ff" /> <!-- Tête -->
  <path d="M134,130 L130,129" stroke="#f72585" stroke-width="1" /> <!-- Bec -->
  <circle cx="136" cy="129" r="0.5" fill="black" /> <!-- Œil -->
  
  <!-- Ondulations de l'eau -->
  <path d="M50,140 Q60,135 70,140 Q80,145 90,140" stroke="#4cc9f0" stroke-width="1" fill="none" opacity="0.5" />
  <path d="M180,120 Q190,115 200,120 Q210,125 220,120" stroke="#4cc9f0" stroke-width="1" fill="none" opacity="0.5" />
  <path d="M100,160 Q110,155 120,160 Q130,165 140,160" stroke="#4cc9f0" stroke-width="1" fill="none" opacity="0.5" />
  
  <!-- Soleil couchant -->
  <circle cx="250" cy="40" r="15" fill="#f72585" opacity="0.7" />
  <path d="M250,20 L250,10" stroke="#f72585" stroke-width="2" opacity="0.7" />
  <path d="M230,40 L220,40" stroke="#f72585" stroke-width="2" opacity="0.7" />
  <path d="M270,40 L280,40" stroke="#f72585" stroke-width="2" opacity="0.7" />
  <path d="M235,25 L225,15" stroke="#f72585" stroke-width="2" opacity="0.7" />
  <path d="M265,25 L275,15" stroke="#f72585" stroke-width="2" opacity="0.7" />
</svg>